<svg xmlns="http://www.w3.org/2000/svg" xmlns:xlink="http://www.w3.org/1999/xlink" aria-hidden="true" role="img" class="iconify iconify--iconoir" width="20" height="20" preserveAspectRatio="xMidYMid meet" viewBox="0 0 24 24"><g stroke-width="1.5" fill="none"><path d="M17.571 18H20.4a.6.6 0 0 0 .6-.6V11a4 4 0 0 0-4-4H7a4 4 0 0 0-4 4v6.4a.6.6 0 0 0 .6.6h2.829" stroke="#fff"></path><path d="M8 7V3.6a.6.6 0 0 1 .6-.6h6.8a.6.6 0 0 1 .6.6V7" stroke="#ffff"></path><path d="M6.098 20.315L6.428 18l.498-3.485A.6.6 0 0 1 7.52 14h8.96a.6.6 0 0 1 .594.515L17.57 18l.331 2.315a.6.6 0 0 1-.594.685H6.692a.6.6 0 0 1-.594-.685z" stroke="#ffff"></path><path d="M17 10.01l.01-.011" stroke="#ffff" stroke-linecap="round" stroke-linejoin="round"></path></g></svg>